<svg width="16" height="7" viewBox="0 0 16 7" fill="white" xmlns="http://www.w3.org/2000/svg">
<path d="M11.222 5.74687C11.594 4.97887 11.942 4.40287 12.266 4.01887H1.772V3.26287H12.266C11.942 2.87887 11.594 2.30287 11.222 1.53487H11.852C12.608 2.41087 13.4 3.05887 14.228 3.47887V3.80287C13.4 4.22287 12.608 4.87087 11.852 5.74687H11.222Z" fill="white"/>
<path d="M11.222 5.74687L10.322 5.31095L9.62649 6.74687H11.222V5.74687ZM12.266 4.01887L13.0303 4.66375L14.4182 3.01887H12.266V4.01887ZM1.772 4.01887H0.772V5.01887H1.772V4.01887ZM1.772 3.26287V2.26287H0.772V3.26287H1.772ZM12.266 3.26287V4.26287H14.4182L13.0303 2.618L12.266 3.26287ZM11.222 1.53487V0.534875H9.62649L10.322 1.9708L11.222 1.53487ZM11.852 1.53487L12.6091 0.881525L12.3099 0.534875H11.852V1.53487ZM14.228 3.47887H15.228V2.86483L14.6804 2.58705L14.228 3.47887ZM14.228 3.80287L14.6804 4.6947L15.228 4.41692V3.80287H14.228ZM11.852 5.74687V6.74687H12.3099L12.6091 6.40022L11.852 5.74687ZM12.122 6.1828C12.4791 5.44547 12.7846 4.95499 13.0303 4.66375L11.5017 3.374C11.0994 3.85076 10.7089 4.51228 10.322 5.31095L12.122 6.1828ZM12.266 3.01887H1.772V5.01887H12.266V3.01887ZM2.772 4.01887V3.26287H0.772V4.01887H2.772ZM1.772 4.26287H12.266V2.26287H1.772V4.26287ZM13.0303 2.618C12.7846 2.32676 12.4791 1.83628 12.122 1.09895L10.322 1.9708C10.7089 2.76947 11.0994 3.43099 11.5017 3.90775L13.0303 2.618ZM11.222 2.53487H11.852V0.534875H11.222V2.53487ZM11.0949 2.18822C11.9158 3.13933 12.8067 3.87924 13.7756 4.3707L14.6804 2.58705C13.9933 2.23851 13.3002 1.68241 12.6091 0.881525L11.0949 2.18822ZM13.228 3.47887V3.80287H15.228V3.47887H13.228ZM13.7756 2.91105C12.8067 3.40251 11.9158 4.14241 11.0949 5.09353L12.6091 6.40022C13.3002 5.59934 13.9933 5.04324 14.6804 4.6947L13.7756 2.91105ZM11.852 4.74687H11.222V6.74687H11.852V4.74687Z" fill="white"/>
</svg>
