<svg width="205" height="30" viewBox="0 0 205 30" fill="none" xmlns="http://www.w3.org/2000/svg">
<g clip-path="url(#clip0)">
<path d="M7.58092 15.8921L19.1347 4.20981C19.9153 3.42394 20.9714 2.9828 22.0724 2.9828C23.1733 2.9828 24.2295 3.42394 25.01 4.20981L25.9079 5.11865L27.7078 3.29681L26.8099 2.38381C25.5509 1.11214 23.8449 0.397949 22.0662 0.397949C20.2876 0.397949 18.5816 1.11214 17.3225 2.38381L5.77692 14.0702L7.58092 15.8921Z" fill="#E9E9E9"/>
<path d="M23.0051 8.05711L21.2052 6.23526L9.64733 17.9341C8.86658 18.7238 7.80788 19.1673 6.70413 19.1669C5.60037 19.1665 4.54198 18.7223 3.76178 17.932C2.98158 17.1418 2.54348 16.0702 2.54386 14.9529C2.54425 13.8357 2.98308 12.7644 3.76383 11.9747L13.735 1.88191L11.9351 0.0600586L1.96393 10.1529C1.32916 10.7805 0.823724 11.5293 0.476907 12.3561C0.130089 13.1828 -0.0512212 14.071 -0.056521 14.9691C-0.0618208 15.8673 0.108995 16.7576 0.446032 17.5884C0.783069 18.4193 1.27963 19.1742 1.90694 19.8095C2.53426 20.4447 3.27987 20.9476 4.10058 21.2891C4.92129 21.6307 5.80078 21.8039 6.68812 21.799C7.57546 21.794 8.45301 21.6108 9.26993 21.2602C10.0868 20.9095 10.8269 20.3982 11.4472 19.756L23.0051 8.05711ZM34.5097 10.1529C33.2502 8.8822 31.5443 8.16871 29.766 8.16871C27.9877 8.16871 26.2819 8.8822 25.0223 10.1529L13.4644 21.8517L15.2643 23.6736L26.8222 11.9747C27.4044 11.3866 28.1458 10.9862 28.9527 10.8243C29.7595 10.6624 30.5957 10.7462 31.3556 11.065C32.1154 11.3839 32.7649 11.9235 33.2219 12.6157C33.679 13.308 33.9231 14.1218 33.9234 14.9544C33.9255 15.5091 33.8178 16.0585 33.6065 16.5703C33.3952 17.0821 33.0848 17.5458 32.6934 17.9341L22.7345 28.0269L24.5385 29.8488L34.5097 19.756C35.7661 18.4816 36.4717 16.7547 36.4717 14.9544C36.4717 13.1541 35.7661 11.4273 34.5097 10.1529Z" fill="#E9E9E9"/>
<path d="M28.8927 14.0166L17.3348 25.7113C16.5532 26.4999 15.4946 26.9428 14.391 26.9428C13.2874 26.9428 12.2288 26.4999 11.4472 25.7113L10.5493 24.7983L8.74939 26.6201L9.64729 27.5331C10.9069 28.8038 12.6127 29.5173 14.391 29.5173C16.1693 29.5173 17.8751 28.8038 19.1347 27.5331L30.6926 15.8302L28.8927 14.0166Z" fill="#E9E9E9"/>
<path d="M47.4846 17.8822C47.6028 18.5761 47.9764 19.1989 48.5301 19.6252C49.1653 20.0699 49.9276 20.2902 50.699 20.2518C51.4333 20.2992 52.1601 20.08 52.749 19.6335C52.9837 19.4358 53.1707 19.1866 53.2958 18.9046C53.4208 18.6227 53.4806 18.3156 53.4706 18.0067C53.4789 17.7178 53.4124 17.4317 53.2779 17.1767C53.1431 16.9453 52.9581 16.748 52.7367 16.5998C52.4727 16.4224 52.1857 16.2828 51.8839 16.1848L50.7441 15.8362L49.6576 15.5374C49.0553 15.3759 48.4692 15.1578 47.9069 14.8859C47.4242 14.6549 46.9779 14.3528 46.5826 13.9895C46.23 13.6581 45.9506 13.2551 45.7626 12.8067C45.5621 12.3135 45.4644 11.7837 45.4756 11.2505C45.4698 10.6597 45.5959 10.0752 45.8446 9.54069C46.0843 9.0205 46.4393 8.56323 46.8819 8.20439C47.3688 7.80994 47.9253 7.51278 48.5219 7.32874C49.219 7.10516 49.9473 6.99724 50.6785 7.00919C52.1846 7.00919 53.3777 7.36886 54.2578 8.08819C54.694 8.44375 55.0558 8.88382 55.3219 9.38263C55.588 9.88145 55.7531 10.429 55.8076 10.9932L53.3476 11.1965C53.2259 10.6252 52.9095 10.1155 52.4538 9.75649C51.9014 9.38271 51.2434 9.202 50.5801 9.24189C49.9542 9.20465 49.3351 9.38958 48.8294 9.76479C48.6274 9.92411 48.4651 10.1291 48.3555 10.3633C48.2459 10.5975 48.1919 10.8544 48.198 11.1135C48.1879 11.3898 48.2516 11.6636 48.3825 11.9062C48.5144 12.1301 48.6953 12.3204 48.9114 12.4623C49.1748 12.6357 49.4585 12.7751 49.756 12.8773C50.0881 13.0018 50.4653 13.1346 50.8835 13.2715L51.9249 13.5994C52.5727 13.8069 53.159 14.0227 53.6838 14.2468C54.1664 14.4546 54.6156 14.7343 55.0163 15.0768C55.3775 15.3863 55.666 15.7733 55.8609 16.2097C56.0718 16.7248 56.1725 17.2793 56.1561 17.8365C56.1629 18.488 56.0227 19.1324 55.7461 19.7206C55.4793 20.2857 55.0896 20.7822 54.6063 21.1731C54.0869 21.5888 53.4962 21.904 52.8638 22.1027C52.1433 22.3296 51.392 22.4402 50.6375 22.4306C49.3031 22.4809 47.9868 22.1064 46.8737 21.3599C46.3541 20.9793 45.919 20.4928 45.5963 19.9317C45.2736 19.3707 45.0705 18.7474 45 18.1021L47.4846 17.8822ZM66.5291 7.05069C67.5604 7.03718 68.5843 7.22895 69.5426 7.61509C70.4178 7.96991 71.2077 8.51048 71.8591 9.20039C72.5127 9.90386 73.019 10.7339 73.3474 11.6406C73.708 12.6372 73.8872 13.6918 73.8763 14.7531C73.891 15.8339 73.7003 16.9075 73.3146 17.9154C72.955 18.8315 72.412 19.6623 71.7197 20.3556L73.6713 22.6671V23.3851H71.2113L69.846 21.696C69.3514 21.9356 68.8333 22.122 68.3003 22.2521C67.7249 22.3767 67.138 22.4379 66.5496 22.4347C65.5065 22.4411 64.4725 22.238 63.5074 21.8371C62.6371 21.4801 61.8528 20.938 61.2073 20.2477C60.5616 19.5474 60.0636 18.7214 59.7436 17.8199C59.39 16.8331 59.2137 15.7903 59.2229 14.7406C59.2126 13.6842 59.389 12.6343 59.7436 11.6406C60.0656 10.7361 60.568 9.90828 61.2196 9.20869C61.8693 8.51861 62.656 7.97551 63.5279 7.61509C64.4806 7.22437 65.5014 7.0324 66.5291 7.05069ZM66.5086 9.27509C65.8317 9.26453 65.1609 9.40628 64.5447 9.69009C63.9785 9.95481 63.4783 10.3448 63.081 10.8313C62.6678 11.3415 62.3559 11.9277 62.1626 12.5577C61.9487 13.2592 61.8436 13.99 61.851 14.724C61.8438 15.4645 61.9532 16.2013 62.1749 16.9069C62.3735 17.5427 62.6878 18.1353 63.1015 18.6541C63.4982 19.1465 63.9982 19.5435 64.5652 19.8161C65.1807 20.1019 65.852 20.2438 66.5291 20.2311C67.2056 20.2378 67.8756 20.0962 68.493 19.8161C69.058 19.557 69.5583 19.1727 69.9567 18.6914C70.3753 18.1805 70.6901 17.591 70.8833 16.9567C71.1076 16.2345 71.2183 15.4811 71.2113 14.724C71.2176 13.9779 71.1069 13.2355 70.8833 12.5245C70.6873 11.894 70.3727 11.3077 69.9567 10.7981C69.5541 10.3169 69.0515 9.93145 68.4848 9.66934C67.8624 9.39347 67.1879 9.2589 66.5086 9.27509ZM83.54 20.3348C83.9958 20.3632 84.4522 20.2903 84.8772 20.1211C85.3022 19.9519 85.6854 19.6905 86 19.3554C86.5822 18.7053 86.8733 17.7065 86.8733 16.3591V7.33704H89.4276V16.4421C89.4478 17.3749 89.3091 18.3043 89.0176 19.1894C88.7821 19.8984 88.3845 20.5411 87.8573 21.0652C87.3342 21.5665 86.7002 21.9336 86.0082 22.1359C84.3984 22.5866 82.698 22.5866 81.0882 22.1359C80.3987 21.9335 79.7673 21.5663 79.2473 21.0652C78.7214 20.5401 78.324 19.8977 78.087 19.1894C77.7957 18.3043 77.657 17.3749 77.677 16.4421V7.33704H80.2395V16.3591C80.2395 17.7037 80.532 18.7025 81.1169 19.3554C81.427 19.686 81.8042 19.9448 82.2224 20.1138C82.6407 20.2829 83.0902 20.3583 83.54 20.3348ZM91.986 21.4221L97.1725 7.35364H101.018L106.147 21.4221V22.1276H103.626L102.158 17.9029H95.8318L94.3476 22.1276H91.9696L91.986 21.4221ZM96.6026 15.6951H101.428L100.633 13.3462C100.321 12.4291 100.071 11.6862 99.8785 11.1011C99.6858 10.5159 99.5218 10.0179 99.3701 9.57804H98.7428L98.4968 10.2794C98.4148 10.5118 98.3246 10.7732 98.2221 11.0596C98.1196 11.3459 98.0089 11.6779 97.8859 12.0514C97.7629 12.4249 97.6153 12.8524 97.439 13.3462L96.6026 15.6951ZM120.473 22.1276H118.013L113.556 16.3176H111.916V22.1276H109.39V7.33704H114.134C114.845 7.33578 115.555 7.3871 116.258 7.49059C116.911 7.58651 117.535 7.83051 118.082 8.20439C119.236 8.97353 119.813 10.1328 119.813 11.6821C119.824 12.2825 119.723 12.8797 119.513 13.4417C119.336 13.9149 119.07 14.3489 118.73 14.7199C118.406 15.0686 118.025 15.3578 117.603 15.5748C117.18 15.7936 116.733 15.9594 116.27 16.0686L120.473 21.4221V22.1276ZM111.908 14.0932H114.126C114.93 14.1366 115.73 13.9496 116.434 13.5537C116.718 13.3619 116.946 13.0969 117.094 12.7861C117.243 12.4753 117.306 12.13 117.279 11.7858C117.312 11.4443 117.25 11.1001 117.098 10.7931C116.946 10.4862 116.712 10.2289 116.422 10.0511C115.71 9.69296 114.92 9.52441 114.126 9.56144H111.908V14.0932ZM123.728 7.33704H133.191V9.60294H126.221V13.4749H132.691V15.6993H126.233V19.8493H133.334V22.1276H123.728V7.33704ZM138.992 17.8822C139.111 18.5761 139.484 19.1989 140.038 19.6252C140.673 20.0694 141.436 20.2896 142.207 20.2518C142.941 20.2992 143.668 20.08 144.257 19.6335C144.492 19.4358 144.679 19.1866 144.804 18.9046C144.929 18.6227 144.989 18.3156 144.978 18.0067C144.987 17.7178 144.92 17.4317 144.786 17.1767C144.651 16.9453 144.466 16.748 144.245 16.5998C143.981 16.4224 143.694 16.2828 143.392 16.1848L142.252 15.8362L141.153 15.5291C140.551 15.3676 139.965 15.1495 139.402 14.8776C138.92 14.6466 138.474 14.3445 138.078 13.9812C137.726 13.6498 137.446 13.2468 137.258 12.7984C137.056 12.2761 136.958 11.718 136.973 11.157C136.987 10.5961 137.112 10.0436 137.34 9.53239C137.581 9.01305 137.936 8.55608 138.377 8.19609C138.864 7.80164 139.421 7.50448 140.017 7.32044C140.715 7.09686 141.443 6.98894 142.174 7.00089C143.68 7.00089 144.875 7.36056 145.757 8.07989C146.193 8.43566 146.554 8.87586 146.82 9.37469C147.085 9.87351 147.249 10.4209 147.303 10.9849L144.843 11.1882C144.724 10.6181 144.41 10.1085 143.958 9.74819C143.405 9.37385 142.747 9.19308 142.084 9.23359C141.458 9.19635 140.839 9.38127 140.333 9.75649C140.132 9.91624 139.97 10.1214 139.862 10.3556C139.753 10.5898 139.699 10.8465 139.706 11.1052C139.695 11.3811 139.757 11.6549 139.886 11.8979C140.018 12.1218 140.199 12.3121 140.415 12.454C140.679 12.6274 140.962 12.7668 141.26 12.869C141.592 12.9935 141.969 13.1263 142.391 13.2632L143.429 13.5911C144.079 13.7986 144.666 14.0144 145.188 14.2385C145.67 14.4463 146.119 14.726 146.52 15.0685C146.881 15.378 147.17 15.765 147.365 16.2014C147.576 16.7165 147.676 17.271 147.66 17.8282C147.667 18.4797 147.526 19.1241 147.25 19.7123C146.984 20.2782 146.595 20.7751 146.11 21.1648C145.59 21.5772 144.999 21.8895 144.368 22.0861C143.646 22.3129 142.893 22.4236 142.137 22.414C140.803 22.4638 139.487 22.0893 138.373 21.3433C137.857 20.9637 137.425 20.4795 137.104 19.9215C136.782 19.3635 136.58 18.7439 136.508 18.1021L138.992 17.8822ZM151.301 7.33704H156.631C157.475 7.31497 158.317 7.43416 159.123 7.68979C159.736 7.8809 160.297 8.2117 160.763 8.65674C161.173 9.06038 161.48 9.55888 161.657 10.1092C161.845 10.6904 161.938 11.2988 161.932 11.9103C161.949 12.5994 161.82 13.2842 161.555 13.9189C161.315 14.474 160.942 14.9592 160.468 15.3299C159.95 15.718 159.363 15.9999 158.738 16.1599C157.987 16.355 157.213 16.4485 156.438 16.438H153.855V22.1276H151.309L151.301 7.33704ZM153.847 14.2177H156.286C156.699 14.2208 157.111 14.1833 157.516 14.1057C157.861 14.0403 158.192 13.9124 158.492 13.728C158.768 13.5531 158.993 13.3067 159.144 13.0142C159.309 12.6709 159.389 12.292 159.378 11.9103C159.39 11.5193 159.31 11.1309 159.144 10.7774C158.998 10.4812 158.775 10.2303 158.5 10.0511C158.205 9.86551 157.878 9.73742 157.537 9.67349C157.131 9.59526 156.719 9.55773 156.307 9.56144H153.826L153.847 14.2177ZM162.637 21.4221L167.828 7.35364H171.674L176.799 21.4221V22.1276H174.298L172.834 17.9029H166.483L165.019 22.1276H162.637V21.4221ZM167.258 15.6951H172.079L171.284 13.3462C170.972 12.4291 170.722 11.6862 170.534 11.1011L170.025 9.57804H169.378L169.132 10.2794C169.05 10.5118 168.959 10.7732 168.857 11.0596C168.754 11.3459 168.644 11.6779 168.521 12.0514C168.398 12.4249 168.25 12.8524 168.074 13.3462L167.258 15.6951ZM192.305 18.2142C192.073 18.7928 191.77 19.3395 191.403 19.841C191.022 20.3552 190.564 20.806 190.046 21.1773C189.484 21.5767 188.862 21.8822 188.205 22.082C187.45 22.3109 186.664 22.4229 185.876 22.414C184.858 22.4296 183.848 22.2333 182.908 21.8371C182.047 21.4736 181.272 20.9306 180.632 20.2435C179.99 19.5407 179.494 18.7135 179.177 17.8116C178.829 16.8307 178.655 15.7952 178.664 14.7531C178.655 13.7109 178.828 12.6754 179.177 11.6945C179.495 10.7887 179.993 9.95829 180.64 9.25434C181.284 8.55992 182.063 8.00872 182.928 7.63584C183.871 7.23449 184.886 7.03525 185.909 7.05069C187.332 6.99949 188.735 7.39525 189.927 8.18364C190.986 8.91405 191.789 9.96619 192.219 11.1882L189.632 11.7028C189.309 10.9841 188.799 10.3683 188.156 9.92249C187.476 9.47679 186.678 9.251 185.868 9.27509C185.204 9.26038 184.545 9.40247 183.945 9.69009C183.392 9.9647 182.906 10.3602 182.522 10.8479C182.119 11.3676 181.819 11.9607 181.637 12.5951C181.427 13.2932 181.324 14.0194 181.329 14.7489C181.323 15.4832 181.429 16.214 181.645 16.9152C181.838 17.5434 182.148 18.1281 182.559 18.6375C182.96 19.1159 183.46 19.4997 184.023 19.7621C184.636 20.0468 185.304 20.1886 185.978 20.1771C186.816 20.2112 187.642 19.9647 188.328 19.4758C188.932 19.0277 189.424 18.442 189.763 17.766L192.305 18.2142ZM195.745 7.33704H205.207V9.60294H198.237V13.4749H204.72V15.6993H198.25V19.8493H205.351V22.1276H195.745V7.33704Z" fill="#E9E9E9"/>
</g>
<defs>
<clipPath id="clip0">
<rect width="205" height="30" fill="white"/>
</clipPath>
</defs>
</svg>
