<svg width="174" height="32" viewBox="0 0 174 32" fill="none" xmlns="http://www.w3.org/2000/svg">
<g clip-path="url(#clip0)" filter="url(#filter0_d)">
<path d="M10.1387 12.7136L19.4944 3.36784C20.1265 2.73915 20.9817 2.38624 21.8732 2.38624C22.7647 2.38624 23.6199 2.73915 24.252 3.36784L24.9791 4.09492L26.4365 2.63744L25.7095 1.90704C24.6899 0.889709 23.3085 0.318359 21.8682 0.318359C20.4279 0.318359 19.0465 0.889709 18.027 1.90704L8.67786 11.2562L10.1387 12.7136Z" fill="black"/>
<path d="M22.6285 6.44549L21.171 4.98801L11.8119 14.3471C11.1797 14.9789 10.3224 15.3336 9.42867 15.3333C8.5349 15.333 7.67786 14.9776 7.04609 14.3454C6.41432 13.7132 6.05956 12.8559 6.05988 11.9622C6.06019 11.0684 6.41554 10.2113 7.04775 9.57957L15.122 1.50533L13.6645 0.0478516L5.59027 8.12209C5.07626 8.62418 4.66698 9.22327 4.38614 9.88465C4.10531 10.546 3.95849 11.2566 3.9542 11.9751C3.94991 12.6936 4.08823 13.4059 4.36114 14.0706C4.63406 14.7352 5.03615 15.3392 5.54413 15.8474C6.0521 16.3556 6.65586 16.7579 7.32044 17.0311C7.98501 17.3043 8.69719 17.443 9.41571 17.439C10.1342 17.435 10.8448 17.2885 11.5063 17.0079C12.1678 16.7274 12.7671 16.3184 13.2694 15.8046L22.6285 6.44549ZM31.9444 8.12209C30.9245 7.10557 29.5432 6.53478 28.1032 6.53478C26.6632 6.53478 25.2819 7.10557 24.2619 8.12209L14.9029 17.4812L16.3603 18.9387L25.7194 9.57957C26.1909 9.10905 26.7912 8.7888 27.4446 8.65928C28.0979 8.52975 28.775 8.59675 29.3903 8.85183C30.0056 9.1069 30.5315 9.5386 30.9016 10.0924C31.2717 10.6462 31.4694 11.2973 31.4697 11.9633C31.4714 12.4071 31.3841 12.8466 31.213 13.2561C31.042 13.6655 30.7906 14.0365 30.4737 14.3471L22.4094 22.4213L23.8702 23.8788L31.9444 15.8046C32.9618 14.7851 33.5331 13.4036 33.5331 11.9633C33.5331 10.5231 32.9618 9.14161 31.9444 8.12209Z" fill="black"/>
<path d="M27.3961 11.2133L18.037 20.569C17.4041 21.2 16.5469 21.5542 15.6532 21.5542C14.7596 21.5542 13.9024 21.2 13.2695 20.569L12.5424 19.8386L11.0849 21.2961L11.812 22.0265C12.8319 23.0431 14.2132 23.6138 15.6532 23.6138C17.0932 23.6138 18.4745 23.0431 19.4945 22.0265L28.8535 12.6641L27.3961 11.2133ZM42.0804 14.4802C42.1762 15.0353 42.4787 15.5335 42.927 15.8746C43.4413 16.2304 44.0587 16.4066 44.6833 16.3759C45.2779 16.4138 45.8665 16.2384 46.3433 15.8812C46.5334 15.7231 46.6848 15.5237 46.7861 15.2981C46.8873 15.0726 46.9357 14.8269 46.9276 14.5798C46.9343 14.3486 46.8805 14.1197 46.7716 13.9158C46.6625 13.7306 46.5126 13.5728 46.3333 13.4543C46.1195 13.3123 45.8872 13.2006 45.6428 13.1223L44.7198 12.8434L43.84 12.6044C43.3523 12.4751 42.8777 12.3006 42.4224 12.0831C42.0315 11.8983 41.6701 11.6566 41.35 11.366C41.0645 11.1009 40.8382 10.7785 40.686 10.4198C40.5236 10.0252 40.4445 9.60139 40.4536 9.17481C40.4489 8.70218 40.5511 8.23459 40.7524 7.80697C40.9465 7.39081 41.234 7.025 41.5924 6.73793C41.9866 6.42237 42.4373 6.18464 42.9204 6.03741C43.4849 5.85854 44.0746 5.77221 44.6667 5.78177C45.8862 5.78177 46.8524 6.0695 47.5651 6.64497C47.9183 6.92941 48.2112 7.28147 48.4267 7.68052C48.6422 8.07957 48.7759 8.5176 48.82 8.96897L46.828 9.13165C46.7294 8.6746 46.4732 8.26678 46.1043 7.97961C45.6569 7.68058 45.1241 7.53601 44.587 7.56793C44.0802 7.53814 43.5788 7.68607 43.1694 7.98625C43.0058 8.1137 42.8744 8.27768 42.7856 8.46505C42.6969 8.65242 42.6532 8.85797 42.6581 9.06525C42.6499 9.28622 42.7015 9.50529 42.8075 9.69937C42.9143 9.87851 43.0608 10.0307 43.2358 10.1442C43.449 10.283 43.6788 10.3945 43.9197 10.4762C44.1886 10.5758 44.4941 10.6821 44.8327 10.7916L45.676 11.0539C46.2005 11.2199 46.6753 11.3926 47.1003 11.5718C47.4911 11.7381 47.8548 11.9619 48.1793 12.2358C48.4717 12.4834 48.7054 12.793 48.8632 13.1422C49.034 13.5542 49.1155 13.9978 49.1022 14.4436C49.1077 14.9648 48.9942 15.4803 48.7702 15.9509C48.5542 16.4029 48.2386 16.8002 47.8473 17.1129C47.4267 17.4455 46.9483 17.6976 46.4363 17.8566C45.8528 18.0381 45.2445 18.1266 44.6335 18.1189C43.553 18.1591 42.4871 17.8596 41.5857 17.2623C41.165 16.9578 40.8126 16.5686 40.5513 16.1198C40.29 15.6709 40.1255 15.1724 40.0685 14.6561L42.0804 14.4802ZM57.5018 5.81497C58.3369 5.80416 59.1661 5.95757 59.942 6.26649C60.6507 6.55034 61.2904 6.9828 61.8178 7.53473C62.3471 8.0975 62.757 8.76154 63.023 9.48689C63.315 10.2842 63.4601 11.1278 63.4513 11.9769C63.4632 12.8415 63.3088 13.7004 62.9964 14.5067C62.7053 15.2396 62.2655 15.9043 61.7049 16.4589L63.2853 18.3081V18.8825H61.2933L60.1877 17.5312C59.7872 17.7229 59.3677 17.872 58.9361 17.9761C58.4702 18.0757 57.9948 18.1247 57.5184 18.1222C56.6737 18.1273 55.8364 17.9648 55.055 17.6441C54.3503 17.3585 53.7151 16.9248 53.1925 16.3726C52.6696 15.8123 52.2664 15.1515 52.0072 14.4304C51.7209 13.6409 51.5781 12.8066 51.5856 11.9669C51.5773 11.1217 51.7201 10.2819 52.0072 9.48689C52.268 8.76327 52.6748 8.10104 53.2024 7.54137C53.7286 6.9893 54.3656 6.55482 55.0716 6.26649C55.843 5.95391 56.6696 5.80033 57.5018 5.81497ZM57.4852 7.59449C56.9371 7.58604 56.3939 7.69943 55.8949 7.92649C55.4365 8.13826 55.0315 8.45027 54.7097 8.83949C54.3751 9.24762 54.1226 9.7166 53.966 10.2206C53.7928 10.7818 53.7077 11.3664 53.7137 11.9536C53.7079 12.546 53.7964 13.1355 53.976 13.7C54.1368 14.2086 54.3913 14.6826 54.7263 15.0977C55.0475 15.4916 55.4524 15.8092 55.9115 16.0273C56.41 16.256 56.9535 16.3694 57.5018 16.3593C58.0497 16.3646 58.5922 16.2514 59.0921 16.0273C59.5496 15.82 59.9547 15.5125 60.2773 15.1276C60.6163 14.7188 60.8713 14.2472 61.0277 13.7398C61.2093 13.162 61.2989 12.5593 61.2933 11.9536C61.2983 11.3568 61.2087 10.7628 61.0277 10.194C60.869 9.6896 60.6142 9.22061 60.2773 8.81293C59.9513 8.42791 59.5443 8.11957 59.0855 7.90989C58.5815 7.68919 58.0353 7.58154 57.4852 7.59449ZM71.2765 16.4423C71.6456 16.465 72.0152 16.4066 72.3593 16.2713C72.7035 16.1359 73.0138 15.9269 73.2685 15.6588C73.7399 15.1386 73.9757 14.3396 73.9757 13.2617V6.04405H76.044V13.3281C76.0604 14.0744 75.948 14.8178 75.712 15.526C75.5213 16.0932 75.1994 16.6073 74.7725 17.0266C74.3489 17.4276 73.8355 17.7213 73.2751 17.8832C71.9716 18.2437 70.5947 18.2437 69.2911 17.8832C68.7328 17.7212 68.2216 17.4274 67.8005 17.0266C67.3746 16.6065 67.0528 16.0926 66.8609 15.526C66.625 14.8178 66.5127 14.0744 66.5289 13.3281V6.04405H68.6039V13.2617C68.6039 14.3374 68.8407 15.1364 69.3144 15.6588C69.5655 15.9232 69.8709 16.1302 70.2096 16.2655C70.5483 16.4007 70.9123 16.461 71.2765 16.4423ZM78.1157 17.3121L82.3155 6.05733H85.4297L89.583 17.3121V17.8765H87.5412L86.3526 14.4968H81.2299L80.028 17.8765H78.1024L78.1157 17.3121ZM81.854 12.7305H85.7617L85.1176 10.8514C84.8653 10.1177 84.6627 9.52341 84.5067 9.05529C84.3507 8.58717 84.2179 8.18877 84.095 7.83685H83.5871L83.3879 8.39793C83.3215 8.58385 83.2484 8.79301 83.1654 9.02209C83.0824 9.25117 82.9928 9.51677 82.8932 9.81557C82.7936 10.1144 82.6741 10.4563 82.5313 10.8514L81.854 12.7305ZM101.183 17.8765H99.1911L95.5822 13.2285H94.2542V17.8765H92.2091V6.04405H96.0503C96.6258 6.04304 97.2006 6.08409 97.7701 6.16689C98.2993 6.24362 98.8043 6.43882 99.2475 6.73793C100.182 7.35324 100.649 8.28062 100.649 9.52009C100.658 10.0004 100.576 10.4782 100.406 10.9278C100.263 11.3063 100.047 11.6535 99.7721 11.9503C99.5095 12.2293 99.2006 12.4607 98.8591 12.6342C98.5168 12.8093 98.1544 12.9419 97.7801 13.0293L101.183 17.3121V17.8765ZM94.2476 11.449H96.0437C96.6949 11.4837 97.3428 11.3341 97.9129 11.0174C98.1425 10.864 98.327 10.6519 98.4472 10.4033C98.5675 10.1546 98.6191 9.87838 98.5968 9.60309C98.6239 9.32986 98.5732 9.05452 98.4504 8.80893C98.3276 8.56334 98.1378 8.35754 97.9029 8.21533C97.3266 7.92878 96.6867 7.79394 96.0437 7.82357H94.2476V11.449ZM103.819 6.04405H111.482V7.85677H105.838V10.9543H111.077V12.7338H105.848V16.0538H111.598V17.8765H103.819V6.04405ZM116.18 14.4802C116.275 15.0353 116.578 15.5335 117.026 15.8746C117.541 16.2299 118.158 16.4061 118.782 16.3759C119.377 16.4138 119.966 16.2384 120.442 15.8812C120.632 15.7231 120.784 15.5237 120.885 15.2981C120.986 15.0726 121.035 14.8269 121.027 14.5798C121.033 14.3486 120.98 14.1197 120.871 13.9158C120.762 13.7306 120.612 13.5728 120.432 13.4543C120.219 13.3123 119.986 13.2006 119.742 13.1223L118.819 12.8434L117.929 12.5977C117.441 12.4685 116.967 12.294 116.512 12.0765C116.121 11.8917 115.759 11.65 115.439 11.3594C115.154 11.0943 114.927 10.7718 114.775 10.4132C114.611 9.9953 114.532 9.5488 114.544 9.10003C114.555 8.65126 114.656 8.20932 114.842 7.80033C115.037 7.38486 115.324 7.01927 115.682 6.73129C116.076 6.41573 116.526 6.178 117.009 6.03077C117.574 5.8519 118.164 5.76557 118.756 5.77513C119.975 5.77513 120.943 6.06286 121.658 6.63833C122.01 6.92295 122.303 7.2751 122.518 7.67416C122.733 8.07322 122.866 8.51117 122.909 8.96233L120.917 9.12501C120.82 8.6689 120.567 8.26122 120.2 7.97297C119.753 7.67349 119.22 7.52888 118.683 7.56129C118.176 7.53149 117.675 7.67943 117.265 7.97961C117.102 8.10741 116.971 8.27153 116.883 8.45888C116.795 8.64623 116.752 8.85161 116.757 9.05861C116.748 9.27927 116.798 9.49833 116.903 9.69273C117.01 9.87187 117.157 10.0241 117.332 10.1376C117.545 10.2763 117.775 10.3879 118.015 10.4696C118.284 10.5692 118.59 10.6754 118.932 10.785L119.772 11.0473C120.299 11.2133 120.773 11.3859 121.196 11.5652C121.587 11.7314 121.951 11.9552 122.275 12.2292C122.567 12.4768 122.801 12.7864 122.959 13.1356C123.13 13.5476 123.211 13.9912 123.198 14.437C123.204 14.9582 123.09 15.4737 122.866 15.9443C122.651 16.397 122.335 16.7945 121.943 17.1063C121.522 17.4362 121.043 17.686 120.532 17.8433C119.947 18.0248 119.338 18.1133 118.726 18.1056C117.645 18.1454 116.58 17.8459 115.678 17.249C115.26 16.9454 114.91 16.558 114.65 16.1116C114.39 15.6652 114.226 15.1695 114.168 14.6561L116.18 14.4802ZM126.146 6.04405H130.462C131.146 6.02639 131.828 6.12174 132.481 6.32625C132.977 6.47914 133.431 6.74378 133.809 7.09981C134.141 7.42272 134.389 7.82152 134.532 8.26181C134.685 8.72677 134.76 9.21348 134.755 9.70269C134.768 10.2539 134.664 10.8018 134.449 11.3096C134.255 11.7536 133.953 12.1418 133.57 12.4384C133.15 12.7488 132.674 12.9744 132.169 13.1024C131.56 13.2584 130.934 13.3332 130.306 13.3248H128.215V17.8765H126.153L126.146 6.04405ZM128.208 11.5486H130.183C130.517 11.5511 130.851 11.5211 131.179 11.459C131.459 11.4067 131.726 11.3043 131.969 11.1568C132.193 11.0169 132.375 10.8198 132.497 10.5858C132.631 10.3111 132.696 10.008 132.687 9.70269C132.696 9.38982 132.632 9.07911 132.497 8.79633C132.379 8.55934 132.199 8.35864 131.976 8.21533C131.737 8.06682 131.472 7.96435 131.196 7.91321C130.868 7.85062 130.534 7.8206 130.2 7.82357H128.191L128.208 11.5486ZM135.326 17.3121L139.529 6.05733H142.643L146.793 17.3121V17.8765H144.768L143.583 14.4968H138.44L137.255 17.8765H135.326V17.3121ZM139.068 12.7305H142.972L142.328 10.8514C142.076 10.1177 141.873 9.52341 141.72 9.05529L141.309 7.83685H140.784L140.585 8.39793C140.518 8.58385 140.445 8.79301 140.362 9.02209C140.279 9.25117 140.19 9.51677 140.09 9.81557C139.991 10.1144 139.871 10.4563 139.728 10.8514L139.068 12.7305ZM159.349 14.7458C159.162 15.2087 158.917 15.646 158.619 16.0472C158.311 16.4585 157.94 16.8192 157.52 17.1162C157.065 17.4358 156.562 17.6802 156.029 17.84C155.418 18.0232 154.782 18.1127 154.144 18.1056C153.319 18.1181 152.501 17.961 151.74 17.6441C151.043 17.3533 150.415 16.9189 149.897 16.3692C149.377 15.807 148.976 15.1452 148.719 14.4237C148.437 13.639 148.297 12.8106 148.304 11.9769C148.296 11.1432 148.437 10.3147 148.719 9.53005C148.977 8.80536 149.38 8.14104 149.904 7.57789C150.425 7.02235 151.056 6.58139 151.757 6.28309C152.52 5.962 153.342 5.80261 154.17 5.81497C155.322 5.77401 156.459 6.09061 157.424 6.72133C158.282 7.30565 158.931 8.14737 159.28 9.12501L157.185 9.53669C156.924 8.96167 156.511 8.46908 155.99 8.11241C155.439 7.75584 154.793 7.57521 154.137 7.59449C153.599 7.58272 153.066 7.69639 152.58 7.92649C152.132 8.14618 151.739 8.46255 151.428 8.85277C151.102 9.26846 150.858 9.74296 150.711 10.2505C150.541 10.809 150.457 11.3899 150.462 11.9736C150.457 12.561 150.543 13.1456 150.717 13.7066C150.874 14.2091 151.125 14.6769 151.458 15.0844C151.783 15.4671 152.187 15.7742 152.643 15.9841C153.139 16.2118 153.681 16.3253 154.227 16.3161C154.905 16.3434 155.574 16.1462 156.129 15.755C156.618 15.3966 157.016 14.928 157.291 14.3872L159.349 14.7458ZM162.135 6.04405H169.798V7.85677H164.154V10.9543H169.402V12.7338H164.163V16.0538H169.914V17.8765H162.135V6.04405Z" fill="black"/>
</g>
<defs>
<filter id="filter0_d" x="0" y="0" width="174" height="32" filterUnits="userSpaceOnUse" color-interpolation-filters="sRGB">
<feFlood flood-opacity="0" result="BackgroundImageFix"/>
<feColorMatrix in="SourceAlpha" type="matrix" values="0 0 0 0 0 0 0 0 0 0 0 0 0 0 0 0 0 0 127 0"/>
<feOffset dy="4"/>
<feGaussianBlur stdDeviation="2"/>
<feColorMatrix type="matrix" values="0 0 0 0 0 0 0 0 0 0 0 0 0 0 0 0 0 0 0.25 0"/>
<feBlend mode="normal" in2="BackgroundImageFix" result="effect1_dropShadow"/>
<feBlend mode="normal" in="SourceGraphic" in2="effect1_dropShadow" result="shape"/>
</filter>
<clipPath id="clip0">
<rect width="166" height="24" fill="white" transform="translate(4)"/>
</clipPath>
</defs>
</svg>
